<?xml version="1.0" encoding="UTF-8" standalone="no"?>
<!--
Copyright (C) 2009/2010/2011 Ulrich Apel.
This work is distributed under the conditions of the Creative Commons
Attribution-Share Alike 3.0 Licence. This means you are free:
* to Share - to copy, distribute and transmit the work
* to Remix - to adapt the work

Under the following conditions:
* Attribution. You must attribute the work by stating your use of KanjiVG in
  your own copyright header and linking to KanjiVG's website
  (http://kanjivg.tagaini.net)
* Share Alike. If you alter, transform, or build upon this work, you may
  distribute the resulting work only under the same or similar license to this
  one.

See http://creativecommons.org/licenses/by-sa/3.0/ for more details.
-->

<svg
   width="109"
   height="109"
   viewBox="0 0 109 109"
   version="1.1"
   id="svg5"
   sodipodi:docname="cloth.2.svg"
   inkscape:version="1.4 (e7c3feb1, 2024-10-09)"
   xmlns:inkscape="http://www.inkscape.org/namespaces/inkscape"
   xmlns:sodipodi="http://sodipodi.sourceforge.net/DTD/sodipodi-0.dtd"
   xmlns="http://www.w3.org/2000/svg"
   xmlns:svg="http://www.w3.org/2000/svg"
   xmlns:kvg="http://kanjivg.tagaini.net">
  <defs
     id="defs5" />
  <sodipodi:namedview
     id="namedview5"
     pagecolor="#ffffff"
     bordercolor="#000000"
     borderopacity="0.25"
     inkscape:showpageshadow="2"
     inkscape:pageopacity="0.0"
     inkscape:pagecheckerboard="0"
     inkscape:deskcolor="#d1d1d1"
     inkscape:zoom="10.715596"
     inkscape:cx="54.546661"
     inkscape:cy="54.5"
     inkscape:window-width="2560"
     inkscape:window-height="1387"
     inkscape:window-x="0"
     inkscape:window-y="25"
     inkscape:window-maximized="1"
     inkscape:current-layer="svg5" />
  <path
     id="kvg:05e03-s1"
     kvg:type="㇒"
     d="m 51.65,10.43 c 0.48,1.45 0.59,2.92 0.04,4.92 -4.19,15.4 -14.19,39.4 -36.8,56.55"
     style="fill:none;stroke:#f71941;stroke-width:3;stroke-linecap:round;stroke-linejoin:round;stroke-opacity:1" />
  <path
     id="kvg:05e03-s2"
     kvg:type="㇐"
     d="m 14.25,31.45 c 2.75,0.55 6.4,0.62 9.24,0.27 16.13,-1.97 42.69,-4.11 61.89,-5.43 3.19,-0.22 6.5,-0.17 9.62,0.5"
     style="fill:none;stroke:#000000;stroke-width:3;stroke-linecap:round;stroke-linejoin:round" />
  <path
     id="kvg:05e03-s3"
     kvg:type="㇑"
     d="m 37.25,55.39 c 0.93,0.93 1.34,2.61 1.34,3.71 0,5.78 -0.1,13.4 -0.1,23.9 0,2.51 -0.06,4.47 -0.08,5.39"
     style="fill:none;stroke:#88e788;stroke-width:3;stroke-linecap:round;stroke-linejoin:round;stroke-opacity:1" />
  <path
     id="kvg:05e03-s4"
     kvg:type="㇆a"
     d="m 39.09,57.72 c 7.66,-1.22 24.66,-3.6 38.38,-4.78 4.04,-0.35 4.15,2.98 4.1,4.53 -0.31,9.78 -0.06,21.15 -2.03,28.16 -1.65,5.91 -5.13,0.06 -6.29,-1.13"
     style="fill:none;stroke:#000000;stroke-width:3;stroke-linecap:round;stroke-linejoin:round" />
  <path
     id="kvg:05e03-s5"
     kvg:type="㇑"
     d="m 57.24,39.63 c 0.87,0.87 1.34,2.62 1.34,3.71 0,5.78 -0.12,31.91 -0.12,50.16 0,3.57 -0.05,6.09 -0.07,6.88"
     style="fill:none;stroke:#000000;stroke-width:3;stroke-linecap:round;stroke-linejoin:round" />
  <g
     id="kvg:StrokeNumbers_05e03"
     style="font-size:8;fill:#808080">
    <text
       transform="matrix(1 0 0 1 43.50 10.50)"
       id="text1">1</text>
    <text
       transform="matrix(1 0 0 1 6.50 32.50)"
       id="text2">2</text>
    <text
       transform="matrix(1 0 0 1 30.75 67.50)"
       id="text3">3</text>
    <text
       transform="matrix(1 0 0 1 41.50 54.50)"
       id="text4">4</text>
    <text
       transform="matrix(1 0 0 1 48.50 41.50)"
       id="text5">5</text>
  </g>
</svg>
