<?xml version="1.0" encoding="UTF-8" standalone="no"?>
<!--
Copyright (C) 2009/2010/2011 Ulrich Apel.
This work is distributed under the conditions of the Creative Commons
Attribution-Share Alike 3.0 Licence. This means you are free:
* to Share - to copy, distribute and transmit the work
* to Remix - to adapt the work

Under the following conditions:
* Attribution. You must attribute the work by stating your use of KanjiVG in
  your own copyright header and linking to KanjiVG's website
  (http://kanjivg.tagaini.net)
* Share Alike. If you alter, transform, or build upon this work, you may
  distribute the resulting work only under the same or similar license to this
  one.

See http://creativecommons.org/licenses/by-sa/3.0/ for more details.
-->

<svg
   width="109"
   height="109"
   viewBox="0 0 109 109"
   version="1.1"
   id="svg6"
   sodipodi:docname="exist-suppose.2.svg"
   inkscape:version="1.4 (e7c3feb1, 2024-10-09)"
   xmlns:inkscape="http://www.inkscape.org/namespaces/inkscape"
   xmlns:sodipodi="http://sodipodi.sourceforge.net/DTD/sodipodi-0.dtd"
   xmlns="http://www.w3.org/2000/svg"
   xmlns:svg="http://www.w3.org/2000/svg"
   xmlns:kvg="http://kanjivg.tagaini.net">
  <defs
     id="defs6" />
  <sodipodi:namedview
     id="namedview6"
     pagecolor="#ffffff"
     bordercolor="#000000"
     borderopacity="0.25"
     inkscape:showpageshadow="2"
     inkscape:pageopacity="0.0"
     inkscape:pagecheckerboard="0"
     inkscape:deskcolor="#d1d1d1"
     inkscape:zoom="10.715596"
     inkscape:cx="54.546661"
     inkscape:cy="54.5"
     inkscape:window-width="2560"
     inkscape:window-height="1387"
     inkscape:window-x="0"
     inkscape:window-y="25"
     inkscape:window-maximized="1"
     inkscape:current-layer="svg6" />
  <path
     id="kvg:05b58-s1"
     kvg:type="㇐"
     d="m 22.75,29.55 c 2.37,0.86 5.67,0.68 8.12,0.39 11.38,-1.31 34.88,-3.44 49.37,-4.16 2.79,-0.14 5.77,-0.17 8.51,0.43"
     style="fill:none;stroke:#f71941;stroke-width:3;stroke-linecap:round;stroke-linejoin:round;stroke-opacity:1" />
  <path
     id="kvg:05b58-s2"
     kvg:type="㇒"
     d="m 54.14,11 c 0.36,1.75 0.14,3.25 -0.82,5.89 C 47.25,33.5 36,56.88 16.5,71.29"
     style="fill:none;stroke:#000000;stroke-width:3;stroke-linecap:round;stroke-linejoin:round" />
  <path
     id="kvg:05b58-s3"
     kvg:type="㇑"
     d="m 30.89,54.25 c 1.12,1.12 1.76,2.88 1.76,4.57 0,8.47 0.09,19.32 0.04,31.18 -0.01,2.04 -0.01,4.12 -0.01,6.25"
     style="fill:none;stroke:#88e788;stroke-width:3;stroke-linecap:round;stroke-linejoin:round;stroke-opacity:1" />
  <path
     id="kvg:05b58-s4"
     kvg:type="㇖"
     d="m 54.15,43.63 c 1.87,0.62 4.43,0.97 6.39,0.66 6.59,-1.04 13.58,-2.59 17.33,-3.29 2.01,-0.38 2.93,1.53 1.29,2.93 -2.28,1.95 -10.01,8.62 -14.65,12.11"
     style="fill:none;stroke:#000000;stroke-width:3;stroke-linecap:round;stroke-linejoin:round" />
  <path
     id="kvg:05b58-s5"
     kvg:type="㇁"
     d="m 64.5,56.04 c 6,5.71 12.62,22.96 6.22,36.87 -2.68,5.82 -7.47,1.21 -8.93,-0.6"
     style="fill:none;stroke:#000000;stroke-width:3;stroke-linecap:round;stroke-linejoin:round" />
  <path
     id="kvg:05b58-s6"
     kvg:type="㇐"
     d="m 43.59,68.39 c 2.16,0.73 5.49,0.64 7.79,0.36 8.37,-1.01 26.4,-2.98 35.62,-3.75 3.12,-0.26 5.88,-0.26 8.16,0.44"
     style="fill:none;stroke:#000000;stroke-width:3;stroke-linecap:round;stroke-linejoin:round" />
  <g
     id="kvg:StrokeNumbers_05b58"
     style="font-size:8;fill:#808080">
    <text
       transform="matrix(1 0 0 1 16.50 30.50)"
       id="text1">1</text>
    <text
       transform="matrix(1 0 0 1 45.50 11.50)"
       id="text2">2</text>
    <text
       transform="matrix(1 0 0 1 24.75 73.63)"
       id="text3">3</text>
    <text
       transform="matrix(1 0 0 1 51.75 40.63)"
       id="text4">4</text>
    <text
       transform="matrix(1 0 0 1 57.75 60.13)"
       id="text5">5</text>
    <text
       transform="matrix(1 0 0 1 41.50 65.50)"
       id="text6">6</text>
  </g>
</svg>
