<?xml version="1.0" encoding="UTF-8" standalone="no"?>
<!--
Copyright (C) 2009/2010/2011 Ulrich Apel.
This work is distributed under the conditions of the Creative Commons
Attribution-Share Alike 3.0 Licence. This means you are free:
* to Share - to copy, distribute and transmit the work
* to Remix - to adapt the work

Under the following conditions:
* Attribution. You must attribute the work by stating your use of KanjiVG in
  your own copyright header and linking to KanjiVG's website
  (http://kanjivg.tagaini.net)
* Share Alike. If you alter, transform, or build upon this work, you may
  distribute the resulting work only under the same or similar license to this
  one.

See http://creativecommons.org/licenses/by-sa/3.0/ for more details.
-->

<svg
   width="109"
   height="109"
   viewBox="0 0 109 109"
   version="1.1"
   id="svg6"
   sodipodi:docname="exist-outskirts.2.svg"
   inkscape:version="1.4 (e7c3feb1, 2024-10-09)"
   xmlns:inkscape="http://www.inkscape.org/namespaces/inkscape"
   xmlns:sodipodi="http://sodipodi.sourceforge.net/DTD/sodipodi-0.dtd"
   xmlns="http://www.w3.org/2000/svg"
   xmlns:svg="http://www.w3.org/2000/svg"
   xmlns:kvg="http://kanjivg.tagaini.net">
  <defs
     id="defs6" />
  <sodipodi:namedview
     id="namedview6"
     pagecolor="#ffffff"
     bordercolor="#000000"
     borderopacity="0.25"
     inkscape:showpageshadow="2"
     inkscape:pageopacity="0.0"
     inkscape:pagecheckerboard="0"
     inkscape:deskcolor="#d1d1d1"
     inkscape:zoom="10.715596"
     inkscape:cx="54.546661"
     inkscape:cy="54.5"
     inkscape:window-width="2560"
     inkscape:window-height="1387"
     inkscape:window-x="0"
     inkscape:window-y="25"
     inkscape:window-maximized="1"
     inkscape:current-layer="svg6" />
  <path
     id="kvg:05728-s1"
     kvg:type="㇐"
     d="m 20.5,35.15 c 2.88,0.72 5.21,0.5 7.88,0.25 11.68,-1.09 38.58,-3.88 50.74,-4.87 2.44,-0.2 5.88,-0.04 7.88,0.34"
     style="fill:none;stroke:#f71941;stroke-width:3;stroke-linecap:round;stroke-linejoin:round;stroke-opacity:1" />
  <path
     id="kvg:05728-s2"
     kvg:type="㇒"
     d="m 53.89,12.68 c 0.73,1.57 0.52,3.29 0.03,5.39 C 50.26,33.6 38.95,58.41 14.89,74.4"
     style="fill:none;stroke:#000000;stroke-width:3;stroke-linecap:round;stroke-linejoin:round" />
  <path
     id="kvg:05728-s3"
     kvg:type="㇑"
     d="m 27.46,53.75 c 0.77,0.77 1.32,2.12 1.32,3.43 0,0.55 -0.06,23.07 -0.06,35.33 0,2.83 -0.05,4.92 -0.08,5.74"
     style="fill:none;stroke:#88e788;stroke-width:3;stroke-linecap:round;stroke-linejoin:round;stroke-opacity:1" />
  <path
     id="kvg:05728-s4"
     kvg:type="㇐"
     d="m 43.44,67.81 c 1.62,0.6 4.13,0.38 5.81,0.2 8.73,-0.94 22.01,-2.56 30.75,-3.1 1.83,-0.12 3.93,-0.03 5.74,0.37"
     style="fill:none;stroke:#000000;stroke-width:3;stroke-linecap:round;stroke-linejoin:round" />
  <path
     id="kvg:05728-s5"
     kvg:type="㇑a"
     d="m 63.8,44.37 c 0.98,0.98 2,2.69 2,4.45 0,11.34 -0.11,26.89 -0.11,41.89"
     style="fill:none;stroke:#000000;stroke-width:3;stroke-linecap:round;stroke-linejoin:round" />
  <path
     id="kvg:05728-s6"
     kvg:type="㇐"
     d="m 37.24,92.9 c 3.01,0.47 5.55,0.53 8.13,0.32 11.8,-0.94 27.75,-2.6 40.5,-2.85 2.9,-0.06 5.78,0.04 8.64,0.63"
     style="fill:none;stroke:#000000;stroke-width:3;stroke-linecap:round;stroke-linejoin:round" />
  <g
     id="kvg:StrokeNumbers_05728"
     style="font-size:8;fill:#808080">
    <text
       transform="matrix(1 0 0 1 13.50 35.50)"
       id="text1">1</text>
    <text
       transform="matrix(1 0 0 1 45.50 12.13)"
       id="text2">2</text>
    <text
       transform="matrix(1 0 0 1 18.75 55.50)"
       id="text3">3</text>
    <text
       transform="matrix(1 0 0 1 41.50 64.98)"
       id="text4">4</text>
    <text
       transform="matrix(1 0 0 1 53.50 45.50)"
       id="text5">5</text>
    <text
       transform="matrix(1 0 0 1 36.50 90.50)"
       id="text6">6</text>
  </g>
</svg>
