<?xml version="1.0" encoding="UTF-8" standalone="no"?>
<!--
Copyright (C) 2009/2010/2011 Ulrich Apel.
This work is distributed under the conditions of the Creative Commons
Attribution-Share Alike 3.0 Licence. This means you are free:
* to Share - to copy, distribute and transmit the work
* to Remix - to adapt the work

Under the following conditions:
* Attribution. You must attribute the work by stating your use of KanjiVG in
  your own copyright header and linking to KanjiVG's website
  (http://kanjivg.tagaini.net)
* Share Alike. If you alter, transform, or build upon this work, you may
  distribute the resulting work only under the same or similar license to this
  one.

See http://creativecommons.org/licenses/by-sa/3.0/ for more details.
-->

<svg
   width="109"
   height="109"
   viewBox="0 0 109 109"
   version="1.1"
   id="svg3"
   sodipodi:docname="hira-mo.1.svg"
   inkscape:version="1.4 (e7c3feb1, 2024-10-09)"
   xmlns:inkscape="http://www.inkscape.org/namespaces/inkscape"
   xmlns:sodipodi="http://sodipodi.sourceforge.net/DTD/sodipodi-0.dtd"
   xmlns="http://www.w3.org/2000/svg"
   xmlns:svg="http://www.w3.org/2000/svg">
  <defs
     id="defs3" />
  <sodipodi:namedview
     id="namedview3"
     pagecolor="#ffffff"
     bordercolor="#000000"
     borderopacity="0.25"
     inkscape:showpageshadow="2"
     inkscape:pageopacity="0.0"
     inkscape:pagecheckerboard="0"
     inkscape:deskcolor="#d1d1d1"
     inkscape:zoom="10.715596"
     inkscape:cx="54.546661"
     inkscape:cy="54.5"
     inkscape:window-width="2560"
     inkscape:window-height="1387"
     inkscape:window-x="0"
     inkscape:window-y="25"
     inkscape:window-maximized="1"
     inkscape:current-layer="svg3" />
  <path
     id="kvg:03082-s1"
     d="m 49.17,14.75 c 1.88,1.88 1.86,4.52 1.12,8 -3,14.25 -5,26.62 -7,42.12 -2.55,19.73 -0.75,29.88 17,29.86 C 80.54,94.71 88.92,81.62 80.3,59"
     style="fill:none;stroke:#f71941;stroke-width:3;stroke-linecap:round;stroke-linejoin:round;stroke-opacity:1" />
  <path
     id="kvg:03082-s2"
     d="m 26.54,34.62 c 1.12,0.88 2.87,2.21 6,2 11.12,-0.75 20,-2.12 27.74,-3.46 3.88,-0.67 5.88,-1.17 8.88,-1.04"
     style="fill:none;stroke:#000000;stroke-width:3;stroke-linecap:round;stroke-linejoin:round" />
  <path
     id="kvg:03082-s3"
     d="m 26.42,53.38 c -1.5,4 1,6.75 7.75,6.75 8.75,0 17.62,-1 22.88,-1.88 2.01,-0.33 5.38,-1 7.5,-1.75"
     style="fill:none;stroke:#000000;stroke-width:3;stroke-linecap:round;stroke-linejoin:round" />
  <g
     id="kvg:StrokeNumbers_03082"
     style="font-size:8;fill:#808080">
    <text
       transform="matrix(1 0 0 1 40.55 14.38)"
       id="text1">1</text>
    <text
       transform="matrix(1 0 0 1 21.3 29.63)"
       id="text2">2</text>
    <text
       transform="matrix(1 0 0 1 21.8 50.88)"
       id="text3">3</text>
  </g>
</svg>
