<?xml version="1.0" encoding="UTF-8" standalone="no"?>
<!--
Copyright (C) 2009/2010/2011 Ulrich Apel.
This work is distributed under the conditions of the Creative Commons
Attribution-Share Alike 3.0 Licence. This means you are free:
* to Share - to copy, distribute and transmit the work
* to Remix - to adapt the work

Under the following conditions:
* Attribution. You must attribute the work by stating your use of KanjiVG in
  your own copyright header and linking to KanjiVG's website
  (http://kanjivg.tagaini.net)
* Share Alike. If you alter, transform, or build upon this work, you may
  distribute the resulting work only under the same or similar license to this
  one.

See http://creativecommons.org/licenses/by-sa/3.0/ for more details.
-->

<svg
   width="109"
   height="109"
   viewBox="0 0 109 109"
   version="1.1"
   id="svg3"
   sodipodi:docname="kata-mo.1.svg"
   inkscape:version="1.4 (e7c3feb1, 2024-10-09)"
   xmlns:inkscape="http://www.inkscape.org/namespaces/inkscape"
   xmlns:sodipodi="http://sodipodi.sourceforge.net/DTD/sodipodi-0.dtd"
   xmlns="http://www.w3.org/2000/svg"
   xmlns:svg="http://www.w3.org/2000/svg">
  <defs
     id="defs3" />
  <sodipodi:namedview
     id="namedview3"
     pagecolor="#ffffff"
     bordercolor="#000000"
     borderopacity="0.25"
     inkscape:showpageshadow="2"
     inkscape:pageopacity="0.0"
     inkscape:pagecheckerboard="0"
     inkscape:deskcolor="#d1d1d1"
     inkscape:zoom="10.715596"
     inkscape:cx="54.546661"
     inkscape:cy="54.5"
     inkscape:window-width="2560"
     inkscape:window-height="1387"
     inkscape:window-x="0"
     inkscape:window-y="25"
     inkscape:window-maximized="1"
     inkscape:current-layer="svg3" />
  <path
     id="kvg:030e2-s1"
     d="m 27.88,26.19 c 2.5,1.19 4.33,1.6 7.45,1.35 11.55,-0.91 21.93,-2.16 32.79,-3.93 2.62,-0.42 6.27,-0.41 8.39,-0.17"
     style="fill:none;stroke:#f71941;stroke-width:3;stroke-linecap:round;stroke-linejoin:round;stroke-opacity:1" />
  <path
     id="kvg:030e2-s2"
     d="m 17.5,54.38 c 2.62,1 4.78,1.45 9.12,0.75 20.26,-3.25 33.88,-5.38 51.64,-6.13 3.75,-0.16 7.38,0.25 11.12,0.88"
     style="fill:none;stroke:#000000;stroke-width:3;stroke-linecap:round;stroke-linejoin:round" />
  <path
     id="kvg:030e2-s3"
     d="m 48.76,29.88 c 1.12,1.62 1.42,3.62 1.42,6.12 0,6.53 -0.65,33.56 -0.65,35.88 0,7.67 3.09,11.08 10.53,11.76 5.33,0.49 12.31,0.24 16.37,0 4.46,-0.26 6.52,-0.74 9.59,-1.43"
     style="fill:none;stroke:#000000;stroke-width:3;stroke-linecap:round;stroke-linejoin:round" />
  <g
     id="kvg:StrokeNumbers_030e2"
     style="font-size:8;fill:#808080">
    <text
       transform="matrix(1 0 0 1 20.88 23.63)"
       id="text1">1</text>
    <text
       transform="matrix(1 0 0 1 13.38 49.38)"
       id="text2">2</text>
    <text
       transform="matrix(1 0 0 1 42.13 35.38)"
       id="text3">3</text>
  </g>
</svg>
