<?xml version="1.0" encoding="UTF-8" standalone="no"?>
<!--
Copyright (C) 2009/2010/2011 Ulrich Apel.
This work is distributed under the conditions of the Creative Commons
Attribution-Share Alike 3.0 Licence. This means you are free:
* to Share - to copy, distribute and transmit the work
* to Remix - to adapt the work

Under the following conditions:
* Attribution. You must attribute the work by stating your use of KanjiVG in
  your own copyright header and linking to KanjiVG's website
  (http://kanjivg.tagaini.net)
* Share Alike. If you alter, transform, or build upon this work, you may
  distribute the resulting work only under the same or similar license to this
  one.

See http://creativecommons.org/licenses/by-sa/3.0/ for more details.
-->

<svg
   width="109"
   height="109"
   viewBox="0 0 109 109"
   version="1.1"
   id="svg5"
   sodipodi:docname="left-hidari.1.svg"
   inkscape:version="1.4 (e7c3feb1, 2024-10-09)"
   xmlns:inkscape="http://www.inkscape.org/namespaces/inkscape"
   xmlns:sodipodi="http://sodipodi.sourceforge.net/DTD/sodipodi-0.dtd"
   xmlns="http://www.w3.org/2000/svg"
   xmlns:svg="http://www.w3.org/2000/svg"
   xmlns:kvg="http://kanjivg.tagaini.net">
  <defs
     id="defs5" />
  <sodipodi:namedview
     id="namedview5"
     pagecolor="#ffffff"
     bordercolor="#000000"
     borderopacity="0.25"
     inkscape:showpageshadow="2"
     inkscape:pageopacity="0.0"
     inkscape:pagecheckerboard="0"
     inkscape:deskcolor="#d1d1d1"
     inkscape:zoom="10.715596"
     inkscape:cx="54.546661"
     inkscape:cy="54.5"
     inkscape:window-width="2560"
     inkscape:window-height="1387"
     inkscape:window-x="0"
     inkscape:window-y="25"
     inkscape:window-maximized="1"
     inkscape:current-layer="svg5" />
  <path
     id="kvg:05de6-s1"
     kvg:type="㇐"
     d="m 20.75,40.17 c 2.95,0.49 5.68,0.29 8.64,-0.05 14.5,-1.68 29.75,-4.47 47.22,-5.96 2.83,-0.24 5.87,-0.58 8.64,0.26"
     style="fill:none;stroke:#f71941;stroke-width:3;stroke-linecap:round;stroke-linejoin:round;stroke-opacity:1" />
  <path
     id="kvg:05de6-s2"
     kvg:type="㇒"
     d="m 55.48,12.5 c 0.27,1.57 0.21,4.18 -0.29,5.93 C 46.59,48.64 32.07,74.14 11.25,91"
     style="fill:none;stroke:#000000;stroke-width:3;stroke-linecap:round;stroke-linejoin:round" />
  <path
     id="kvg:05de6-s3"
     kvg:type="㇐"
     d="m 43.25,64.59 c 1.25,0.29 2.38,0.29 3.86,0.17 4.86,-0.37 17.91,-2.17 26.92,-3.77 1.88,-0.33 3.97,-0.5 5.97,-0.11"
     style="fill:none;stroke:#000000;stroke-width:3;stroke-linecap:round;stroke-linejoin:round" />
  <path
     id="kvg:05de6-s4"
     kvg:type="㇑a"
     d="m 58.54,66.75 c 1.04,1.04 1.91,2.62 1.91,4.03 0,6.84 0.04,13.22 0.04,18.72"
     style="fill:none;stroke:#000000;stroke-width:3;stroke-linecap:round;stroke-linejoin:round" />
  <path
     id="kvg:05de6-s5"
     kvg:type="㇐"
     d="m 28.5,92.25 c 2.76,0.84 5.92,0.51 8.75,0.34 14.54,-0.9 32.08,-2.65 48.13,-3.26 3.25,-0.12 6.38,-0.17 9.49,0.93"
     style="fill:none;stroke:#000000;stroke-width:3;stroke-linecap:round;stroke-linejoin:round" />
  <g
     id="kvg:StrokeNumbers_05de6"
     style="font-size:8;fill:#808080">
    <text
       transform="matrix(1 0 0 1 10.50 40.50)"
       id="text1">1</text>
    <text
       transform="matrix(1 0 0 1 44.50 13.50)"
       id="text2">2</text>
    <text
       transform="matrix(1 0 0 1 45.50 61.50)"
       id="text3">3</text>
    <text
       transform="matrix(1 0 0 1 51.50 74.50)"
       id="text4">4</text>
    <text
       transform="matrix(1 0 0 1 28.50 89.13)"
       id="text5">5</text>
  </g>
</svg>
