<?xml version="1.0" encoding="UTF-8" standalone="no"?>
<!--
Copyright (C) 2009/2010/2011 Ulrich Apel.
This work is distributed under the conditions of the Creative Commons
Attribution-Share Alike 3.0 Licence. This means you are free:
* to Share - to copy, distribute and transmit the work
* to Remix - to adapt the work

Under the following conditions:
* Attribution. You must attribute the work by stating your use of KanjiVG in
  your own copyright header and linking to KanjiVG's website
  (http://kanjivg.tagaini.net)
* Share Alike. If you alter, transform, or build upon this work, you may
  distribute the resulting work only under the same or similar license to this
  one.

See http://creativecommons.org/licenses/by-sa/3.0/ for more details.
-->

<svg
   width="109"
   height="109"
   viewBox="0 0 109 109"
   version="1.1"
   id="svg6"
   sodipodi:docname="possess.2.svg"
   inkscape:version="1.4 (e7c3feb1, 2024-10-09)"
   xmlns:inkscape="http://www.inkscape.org/namespaces/inkscape"
   xmlns:sodipodi="http://sodipodi.sourceforge.net/DTD/sodipodi-0.dtd"
   xmlns="http://www.w3.org/2000/svg"
   xmlns:svg="http://www.w3.org/2000/svg"
   xmlns:kvg="http://kanjivg.tagaini.net">
  <defs
     id="defs6" />
  <sodipodi:namedview
     id="namedview6"
     pagecolor="#ffffff"
     bordercolor="#000000"
     borderopacity="0.25"
     inkscape:showpageshadow="2"
     inkscape:pageopacity="0.0"
     inkscape:pagecheckerboard="0"
     inkscape:deskcolor="#d1d1d1"
     inkscape:zoom="10.715596"
     inkscape:cx="54.546661"
     inkscape:cy="54.5"
     inkscape:window-width="2560"
     inkscape:window-height="1387"
     inkscape:window-x="0"
     inkscape:window-y="25"
     inkscape:window-maximized="1"
     inkscape:current-layer="svg6" />
  <path
     id="kvg:06709-s1"
     kvg:type="㇒"
     d="m 51.66,13.68 c 0.84,1.2 0.73,3.01 0.31,4.68 -3.11,12.34 -12.85,30.9 -33.08,44.76"
     style="fill:none;stroke:#f71941;stroke-width:3;stroke-linecap:round;stroke-linejoin:round;stroke-opacity:1" />
  <path
     id="kvg:06709-s2"
     kvg:type="㇐"
     d="m 14.25,30.2 c 3.73,1.33 8.33,0.33 12.15,-0.02 14.5,-1.3 45.59,-4.1 61.48,-4.6 3.22,-0.1 6.46,-0.22 9.62,0.46"
     style="fill:none;stroke:#000000;stroke-width:3;stroke-linecap:round;stroke-linejoin:round" />
  <path
     id="kvg:06709-s3"
     kvg:type="㇑"
     d="m 42.48,44.64 c 0.75,0.75 1.44,2.11 1.44,3.57 0,2.66 -0.03,31.04 -0.05,44.91 0,3.26 0,5.71 0,6.85"
     style="fill:none;stroke:#88e788;stroke-width:3;stroke-linecap:round;stroke-linejoin:round;stroke-opacity:1" />
  <path
     id="kvg:06709-s4"
     kvg:type="㇆a"
     d="m 44.86,47.17 c 3.64,-0.54 23.98,-3.91 25.74,-4.18 2.39,-0.36 4.22,1.01 4.22,3.68 0,6.08 -0.09,30.61 -0.09,46.28 0,11.05 -6.11,3.43 -7.75,1.74"
     style="fill:none;stroke:#000000;stroke-width:3;stroke-linecap:round;stroke-linejoin:round" />
  <path
     id="kvg:06709-s5"
     kvg:type="㇐a"
     d="M 44.86,60.56 C 53.5,59.62 66.54,58.41 73.68,57.83"
     style="fill:none;stroke:#000000;stroke-width:3;stroke-linecap:round;stroke-linejoin:round" />
  <path
     id="kvg:06709-s6"
     kvg:type="㇐a"
     d="M 45.21,74.09 C 51.56,73.51 66.2,71.77 73.54,71.38"
     style="fill:none;stroke:#000000;stroke-width:3;stroke-linecap:round;stroke-linejoin:round" />
  <g
     id="kvg:StrokeNumbers_06709"
     style="font-size:8;fill:#808080">
    <text
       transform="matrix(1 0 0 1 45.00 14.00)"
       id="text1">1</text>
    <text
       transform="matrix(1 0 0 1 7.50 29.50)"
       id="text2">2</text>
    <text
       transform="matrix(1 0 0 1 36.50 58.50)"
       id="text3">3</text>
    <text
       transform="matrix(1 0 0 1 46.50 43.50)"
       id="text4">4</text>
    <text
       transform="matrix(1 0 0 1 48.64 56.50)"
       id="text5">5</text>
    <text
       transform="matrix(1 0 0 1 48.50 70.50)"
       id="text6">6</text>
  </g>
</svg>
