<?xml version="1.0" encoding="UTF-8" standalone="no"?>
<!--
Copyright (C) 2009/2010/2011 Ulrich Apel.
This work is distributed under the conditions of the Creative Commons
Attribution-Share Alike 3.0 Licence. This means you are free:
* to Share - to copy, distribute and transmit the work
* to Remix - to adapt the work

Under the following conditions:
* Attribution. You must attribute the work by stating your use of KanjiVG in
  your own copyright header and linking to KanjiVG's website
  (http://kanjivg.tagaini.net)
* Share Alike. If you alter, transform, or build upon this work, you may
  distribute the resulting work only under the same or similar license to this
  one.

See http://creativecommons.org/licenses/by-sa/3.0/ for more details.
-->

<svg
   width="109"
   height="109"
   viewBox="0 0 109 109"
   version="1.1"
   id="svg5"
   sodipodi:docname="stone-ishi.1.svg"
   inkscape:version="1.4 (e7c3feb1, 2024-10-09)"
   xmlns:inkscape="http://www.inkscape.org/namespaces/inkscape"
   xmlns:sodipodi="http://sodipodi.sourceforge.net/DTD/sodipodi-0.dtd"
   xmlns="http://www.w3.org/2000/svg"
   xmlns:svg="http://www.w3.org/2000/svg"
   xmlns:kvg="http://kanjivg.tagaini.net">
  <defs
     id="defs5" />
  <sodipodi:namedview
     id="namedview5"
     pagecolor="#ffffff"
     bordercolor="#000000"
     borderopacity="0.25"
     inkscape:showpageshadow="2"
     inkscape:pageopacity="0.0"
     inkscape:pagecheckerboard="0"
     inkscape:deskcolor="#d1d1d1"
     inkscape:zoom="10.715596"
     inkscape:cx="54.546661"
     inkscape:cy="54.5"
     inkscape:window-width="2560"
     inkscape:window-height="1387"
     inkscape:window-x="0"
     inkscape:window-y="25"
     inkscape:window-maximized="1"
     inkscape:current-layer="svg5" />
  <path
     id="kvg:077f3-s1"
     kvg:type="㇐"
     d="m 19.88,26.65 c 3.2,0.73 6.6,0.59 8.91,0.4 18.28,-1.55 33.06,-3.55 52.96,-4.66 3.87,-0.22 6.42,-0.02 8.12,0.39"
     style="fill:none;stroke:#f71941;stroke-width:3;stroke-linecap:round;stroke-linejoin:round;stroke-opacity:1" />
  <path
     id="kvg:077f3-s2"
     kvg:type="㇒"
     d="m 42.42,29.43 c 0.33,1.45 0.22,2.69 -0.15,4.17 C 39.38,45 30.75,61.62 15,73.5"
     style="fill:none;stroke:#000000;stroke-width:3;stroke-linecap:round;stroke-linejoin:round" />
  <path
     id="kvg:077f3-s3"
     kvg:type="㇑"
     d="m 34.5,56.24 c 0.71,0.64 1.62,2.13 1.75,2.97 0.87,5.49 1.95,14.48 3.14,24.27 0.2,1.68 0.41,3.36 0.6,5.02"
     style="fill:none;stroke:#000000;stroke-width:3;stroke-linecap:round;stroke-linejoin:round" />
  <path
     id="kvg:077f3-s4"
     kvg:type="㇕b"
     d="m 35,56.3 c 12.06,-1.23 38.12,-3.55 45.33,-4.31 3.05,-0.32 4.48,2.33 3.94,4.1 -1.56,5.08 -3.24,16.32 -4.5,24.38"
     style="fill:none;stroke:#000000;stroke-width:3;stroke-linecap:round;stroke-linejoin:round" />
  <path
     id="kvg:077f3-s5"
     kvg:type="㇐b"
     d="M 40.83,84.37 C 48.02,83.85 63.45,82.6 75,81.99 c 2.39,-0.13 4.6,-0.21 6.5,-0.24"
     style="fill:none;stroke:#000000;stroke-width:3;stroke-linecap:round;stroke-linejoin:round" />
  <g
     id="kvg:StrokeNumbers_077f3"
     style="font-size:8;fill:#808080">
    <text
       transform="matrix(1 0 0 1 12.50 27.50)"
       id="text1">1</text>
    <text
       transform="matrix(1 0 0 1 33.50 37.50)"
       id="text2">2</text>
    <text
       transform="matrix(1 0 0 1 29.50 71.50)"
       id="text3">3</text>
    <text
       transform="matrix(1 0 0 1 42.50 52.50)"
       id="text4">4</text>
    <text
       transform="matrix(1 0 0 1 43.50 80.50)"
       id="text5">5</text>
  </g>
</svg>
