<?xml version="1.0" encoding="UTF-8" standalone="no"?>
<!--
Copyright (C) 2009/2010/2011 Ulrich Apel.
This work is distributed under the conditions of the Creative Commons
Attribution-Share Alike 3.0 Licence. This means you are free:
* to Share - to copy, distribute and transmit the work
* to Remix - to adapt the work

Under the following conditions:
* Attribution. You must attribute the work by stating your use of KanjiVG in
  your own copyright header and linking to KanjiVG's website
  (http://kanjivg.tagaini.net)
* Share Alike. If you alter, transform, or build upon this work, you may
  distribute the resulting work only under the same or similar license to this
  one.

See http://creativecommons.org/licenses/by-sa/3.0/ for more details.
-->

<svg
   width="109"
   height="109"
   viewBox="0 0 109 109"
   version="1.1"
   id="svg4"
   sodipodi:docname="tomo.2.svg"
   inkscape:version="1.4 (e7c3feb1, 2024-10-09)"
   xmlns:inkscape="http://www.inkscape.org/namespaces/inkscape"
   xmlns:sodipodi="http://sodipodi.sourceforge.net/DTD/sodipodi-0.dtd"
   xmlns="http://www.w3.org/2000/svg"
   xmlns:svg="http://www.w3.org/2000/svg"
   xmlns:kvg="http://kanjivg.tagaini.net">
  <defs
     id="defs4" />
  <sodipodi:namedview
     id="namedview4"
     pagecolor="#ffffff"
     bordercolor="#000000"
     borderopacity="0.25"
     inkscape:showpageshadow="2"
     inkscape:pageopacity="0.0"
     inkscape:pagecheckerboard="0"
     inkscape:deskcolor="#d1d1d1"
     inkscape:zoom="10.715596"
     inkscape:cx="54.546661"
     inkscape:cy="54.5"
     inkscape:window-width="2560"
     inkscape:window-height="1387"
     inkscape:window-x="0"
     inkscape:window-y="25"
     inkscape:window-maximized="1"
     inkscape:current-layer="svg4" />
  <path
     id="kvg:053cb-s1"
     kvg:type="㇐"
     d="m 17.88,37.23 c 2.13,0.54 5.78,0.58 7.89,0.29 17.48,-2.39 35.98,-4.39 54.65,-5.48 3.54,-0.21 5.68,0.01 7.46,0.28"
     style="fill:none;stroke:#f71941;stroke-width:3;stroke-linecap:round;stroke-linejoin:round;stroke-opacity:1" />
  <path
     id="kvg:053cb-s2"
     kvg:type="㇒"
     d="m 48.22,14.14 c 0.53,2.11 0.53,4.3 0.31,6.73 C 47,38 33,72.5 15.5,85.25"
     style="fill:none;stroke:#000000;stroke-width:3;stroke-linecap:round;stroke-linejoin:round" />
  <path
     id="kvg:053cb-s3"
     kvg:type="㇇"
     d="m 42.66,54.86 c 1.09,0.27 2.51,0.28 3.59,0.14 6.88,-0.88 16.62,-3.25 22.43,-4.88 3.45,-0.97 4.6,1.45 3.11,4.55 C 66.5,65.62 48.12,87.75 24,96.5"
     style="fill:none;stroke:#88e788;stroke-width:3;stroke-linecap:round;stroke-linejoin:round;stroke-opacity:1" />
  <path
     id="kvg:053cb-s4"
     kvg:type="㇏"
     d="m 41.25,63.5 c 5.15,0.45 27.5,18.62 40.93,26.36 3.2,1.84 6.65,3.76 10.32,4.39"
     style="fill:none;stroke:#000000;stroke-width:3;stroke-linecap:round;stroke-linejoin:round" />
  <g
     id="kvg:StrokeNumbers_053cb"
     style="font-size:8;fill:#808080">
    <text
       transform="matrix(1 0 0 1 10.50 38.50)"
       id="text1">1</text>
    <text
       transform="matrix(1 0 0 1 38.50 14.50)"
       id="text2">2</text>
    <text
       transform="matrix(1 0 0 1 46.50 51.50)"
       id="text3">3</text>
    <text
       transform="matrix(1 0 0 1 38.50 71.50)"
       id="text4">4</text>
  </g>
</svg>
